<?xml version="1.0" encoding="UTF-8"?><svg version="1.0" xmlns="http://www.w3.org/2000/svg" width="600px" height="600px" viewBox="0 0 8000 8000" preserveAspectRatio="xMidYMid meet"><defs><linearGradient id="gradient" x1="0%" y1="100%" x2="0%" y2="0%"><stop offset="0%" stop-color="rgb(160,0,0)"/><stop offset="50%" stop-color="rgb(230,0,0)"/><stop offset="100%" stop-color="red"/></linearGradient><linearGradient id="gradient2" x1="0%" y1="100%" x2="0%" y2="0%"><stop offset="0%" stop-color="rgb(149,149,149)"/><stop offset="50%" stop-color="rgb(214,214,214)"/><stop offset="100%" stop-color="white"/></linearGradient></defs><g id="layer1" fill="#000000" stroke="none"><path d="M3555 6968 c-3 -7 -4 -209 -3 -448 l3 -435 445 0 445 0 0 445 0 445 -443 3 c-349 2 -444 0 -447 -10z"/><path d="M3555 5548 c-3 -7 -4 -674 -3 -1483 l3 -1470 445 0 445 0 0 1480 0 1480 -443 3 c-349 2 -444 0 -447 -10z"/></g><g id="layer2" fill="url(#gradient)" stroke="none"><path d="M0 7997 c0 -31 351 -739 2010 -4058 1636 -3270 1973 -3939 1990 -3939 17 0 354 669 1990 3939 1659 3319 2010 4027 2010 4058 0 2 -1800 3 -4000 3 -2200 0 -4000 -1 -4000 -3z m6920 -697 c0 -13 -2913 -5840 -2920 -5840 -7 0 -2920 5827 -2920 5840 0 7 981 10 2920 10 1939 0 2920 -3 2920 -10z"/></g><g id="layer3" fill="url(#gradient2)" stroke="none"><path d="M1045 7321 c-9 -16 2938 -5896 2955 -5896 17 0 2964 5880 2955 5896 -4 5 -1107 9 -2955 9 -1848 0 -2951 -4 -2955 -9z m3380 -791 l0 -425 -425 0 -425 0 -3 415 c-1 228 0 421 3 428 3 10 94 12 427 10 l423 -3 0 -425z m0 -2455 l0 -1460 -425 0 -425 0 -3 1450 c-1 798 0 1456 3 1463 3 10 94 12 427 10 l423 -3 0 -1460z"/></g></svg>